Coordinates
version=1
nRows=19
nColumns=34
inDegrees=no

Units are S.I. units (second, meters, Newtons, ...)
If the header above contains a line with 'inDegrees', this indicates whether rotational values are in degrees (yes) or radians (no).

endheader
time	pelvis_tilt	pelvis_list	pelvis_rotation	pelvis_tx	pelvis_ty	pelvis_tz	hip_flexion_r	hip_adduction_r	hip_rotation_r	knee_angle_r	ankle_angle_r	subtalar_angle_r	mtp_angle_r	hip_flexion_l	hip_adduction_l	hip_rotation_l	knee_angle_l	ankle_angle_l	subtalar_angle_l	mtp_angle_l	lumbar_extension	lumbar_bending	lumbar_rotation	arm_flex_r	arm_add_r	arm_rot_r	elbow_flex_r	pro_sup_r	arm_flex_l	arm_add_l	arm_rot_l	elbow_flex_l	pro_sup_l
2.04	-0.327824	-0.000827381	0.0961479	-0.112946	1.59998	-0.68373	0.407839	-0.196542	-0.322657	0.188699	-0.431509	0.189284	-0.10479	0.359126	-0.0197975	-0.368971	0.00119718	-0.591492	0.345184	-0.10527	0.06212	0.0156778	-0.0561981	2.70764	-0.30412	0.961306	1.97707	1.49304	2.35604	-0.615284	0.576308	2.13017	1.64034
2.05	-0.325746	-0.00260059	0.097477	-0.113134	1.6005	-0.684146	0.40864	-0.197205	-0.318364	0.198537	-0.414242	0.174537	-0.104786	0.362793	-0.0231327	-0.379972	0.00602634	-0.578809	0.329398	-0.105265	0.0623003	0.0161063	-0.0600777	2.70744	-0.310521	0.966376	1.97461	1.49425	2.35549	-0.626383	0.587893	2.13149	1.63647
2.06	-0.323599	-0.00464066	0.098913	-0.113293	1.60004	-0.684567	0.409449	-0.197345	-0.314766	0.209062	-0.399355	0.156377	-0.104781	0.366109	-0.0265552	-0.388212	0.0108513	-0.566593	0.314559	-0.10526	0.0624069	0.0168114	-0.0638996	2.70822	-0.316225	0.971239	1.97234	1.49532	2.35613	-0.636958	0.60088	2.1326	1.63007
2.07	-0.321262	-0.00684693	0.100213	-0.113406	1.5986	-0.684968	0.410131	-0.19693	-0.311545	0.219948	-0.387521	0.135933	-0.104776	0.368707	-0.0300433	-0.392818	0.0152872	-0.554821	0.301415	-0.105255	0.0623248	0.0177073	-0.0673995	2.70976	-0.321185	0.975708	1.97036	1.49623	2.35785	-0.646895	0.615112	2.13356	1.62127
2.08	-0.318681	-0.00908518	0.101181	-0.113457	1.59619	-0.685328	0.410573	-0.196004	-0.308524	0.23085	-0.379007	0.114507	-0.104772	0.370363	-0.0335416	-0.39348	0.0190793	-0.5434	0.29052	-0.10525	0.0620216	0.0186412	-0.0704107	2.71176	-0.325364	0.979523	1.96876	1.49697	2.36054	-0.656099	0.630447	2.1344	1.6105
2.09	-0.315874	-0.0112149	0.101693	-0.113435	1.59281	-0.685628	0.410708	-0.194674	-0.305625	0.241466	-0.373676	0.0933959	-0.104767	0.371035	-0.0369811	-0.39044	0.0221714	-0.53223	0.282214	-0.105245	0.061547	0.0194306	-0.0728664	2.71385	-0.328741	0.982403	1.96761	1.49758	2.36407	-0.664494	0.646743	2.1351	1.59836
2.1	-0.312923	-0.0131172	0.101698	-0.113337	1.58846	-0.685856	0.41053	-0.19308	-0.302812	0.251567	-0.371058	0.0737364	-0.104762	0.370855	-0.040298	-0.38438	0.0247122	-0.521256	0.276585	-0.10524	0.061011	0.0199024	-0.0747741	2.71568	-0.331301	0.984101	1.96697	1.49809	2.36831	-0.67202	0.663829	2.13569	1.58546
2.11	-0.309943	-0.014711	0.101201	-0.113167	1.58312	-0.686007	0.410099	-0.191359	-0.30004	0.261019	-0.370473	0.0563849	-0.104758	0.370093	-0.0434461	-0.376241	0.0270022	-0.510506	0.27345	-0.105235	0.0605607	0.0199253	-0.0761804	2.71694	-0.333045	0.984446	1.96684	1.49854	2.37307	-0.678638	0.681498	2.1362	1.57219
2.12	-0.307072	-0.0159502	0.100251	-0.112933	1.57679	-0.686083	0.409534	-0.189623	-0.297233	0.269767	-0.371173	0.0418559	-0.104753	0.369096	-0.0464049	-0.367029	0.0294116	-0.500114	0.272393	-0.10523	0.0603576	0.0194332	-0.0771464	2.71744	-0.333983	0.983361	1.96719	1.49896	2.37818	-0.68433	0.699529	2.13669	1.55839
2.13	-0.304457	-0.0168387	0.0989317	-0.11265	1.56946	-0.686095	0.408984	-0.187948	-0.294308	0.277824	-0.37247	0.0303303	-0.104748	0.368234	-0.0491758	-0.357644	0.0322982	-0.490307	0.27287	-0.105225	0.0605597	0.018424	-0.0777389	2.71708	-0.334142	0.980865	1.96797	1.49937	2.38343	-0.689093	0.717694	2.13731	1.54331
2.14	-0.302232	-0.0174285	0.0973585	-0.112334	1.56111	-0.686061	0.408604	-0.186378	-0.291211	0.285235	-0.373829	0.0217153	-0.104744	0.367845	-0.0517779	-0.348756	0.0359428	-0.481374	0.274327	-0.10522	0.061307	0.0169553	-0.0780238	2.71586	-0.333575	0.977059	1.96914	1.49978	2.38862	-0.69293	0.735751	2.13822	1.52585
2.15	-0.300497	-0.0178057	0.0956632	-0.112	1.55175	-0.686001	0.408523	-0.184921	-0.287936	0.292058	-0.374919	0.0157286	-0.104739	0.368189	-0.0542424	-0.340741	0.0405107	-0.473597	0.276299	-0.105215	0.0627025	0.0151317	-0.0780584	2.71385	-0.332364	0.972113	1.97067	1.50023	2.39355	-0.695841	0.753436	2.1396	1.50492
2.16	-0.299309	-0.0180737	0.0939739	-0.111663	1.54137	-0.685936	0.408824	-0.18356	-0.284518	0.298351	-0.375606	0.0119854	-0.104734	0.369423	-0.0566084	-0.333681	0.0460478	-0.467178	0.278468	-0.10521	0.0647947	0.0130835	-0.0778832	2.7112	-0.330628	0.966229	1.97253	1.50071	2.39804	-0.697821	0.770472	2.14156	1.47987
2.17	-0.29867	-0.0183344	0.0923925	-0.11133	1.52996	-0.685882	0.409535	-0.182259	-0.281009	0.304165	-0.375914	0.0100749	-0.10473	0.371594	-0.0589209	-0.327419	0.0525084	-0.462155	0.280703	-0.105205	0.067567	0.010943	-0.0775231	2.70804	-0.328515	0.959618	1.97477	1.50125	2.40199	-0.698872	0.786586	2.14414	1.45073
2.18	-0.298529	-0.0186725	0.0909819	-0.111008	1.51754	-0.68585	0.410634	-0.180971	-0.277444	0.309549	-0.375937	0.00961949	-0.104725	0.374652	-0.0612284	-0.321643	0.0597978	-0.458366	0.283056	-0.1052	0.0709353	0.00882443	-0.0769973	2.7045	-0.326192	0.95245	1.97742	1.50186	2.40538	-0.699025	0.801532	2.14729	1.41843
2.19	-0.298786	-0.0191495	0.0897659	-0.110701	1.50411	-0.685845	0.412052	-0.179641	-0.273823	0.314561	-0.375768	0.010312	-0.10472	0.378475	-0.0635797	-0.315959	0.0678098	-0.455449	0.285725	-0.105194	0.0747531	0.00681393	-0.0763317	2.70064	-0.32384	0.944832	1.98062	1.50256	2.40828	-0.698348	0.815112	2.15089	1.38481
2.2	-0.299304	-0.0198042	0.0887382	-0.110413	1.48967	-0.685867	0.413682	-0.17822	-0.270097	0.319267	-0.375432	0.0119281	-0.104716	0.382886	-0.0660206	-0.309949	0.0764457	-0.452914	0.288968	-0.105189	0.0788248	0.00496863	-0.0755657	2.69645	-0.321644	0.936795	1.98452	1.50335	2.41083	-0.696958	0.827187	2.15479	1.35233
2.21	-0.299919	-0.0206562	0.0878741	-0.110147	1.47426	-0.685913	0.415399	-0.176662	-0.266174	0.323741	-0.374859	0.0143162	-0.104711	0.387686	-0.0685875	-0.303216	0.0856139	-0.450248	0.293004	-0.105184	0.0829254	0.00332273	-0.074754	2.69186	-0.319789	0.928311	1.9893	1.50422	2.41321	-0.695034	0.837722	2.15887	1.32334
2.22	-0.300462	-0.0217088	0.0871407	-0.109907	1.45786	-0.68598	0.417068	-0.174935	-0.261938	0.328055	-0.373895	0.01737	-0.104706	0.392668	-0.0713009	-0.295438	0.0952179	-0.447053	0.297904	-0.105179	0.0868205	0.00189386	-0.073962	2.68677	-0.318444	0.919322	1.99519	1.50511	2.4156	-0.692825	0.846782	2.16311	1.29976
